<svg width="88" height="100" viewBox="0 0 88 100" fill="none" xmlns="http://www.w3.org/2000/svg">
<path d="M16.2081 100L4.85419 76.5219C-3.67979 58.8752 1.31943 38.1883 15.7608 26.2135C24.7505 18.7592 33.3272 10.8205 41.1981 2.19316L43.1989 0L47.8515 6.14707C53.5923 13.7318 57.9729 21.7971 60.561 29.9693L16.2081 100Z" fill="#00AA95"/>
<path d="M85.5555 29.2847L84.0432 21.7254C76.5688 39.3439 57.3975 48.7056 46.4086 60.8627C27.1914 82.1228 16.208 100 16.208 100H27.5861C78.158 100 92.874 65.8674 85.5555 29.2847Z" fill="#00CC76"/>
<path d="M84.0432 21.7254L81.2869 22.8287C74.4957 25.5472 67.5727 27.9019 60.5609 29.9693V29.9695C56.3789 31.2027 52.1654 32.3336 47.9293 33.3785C29.7148 37.8717 16.208 54.3187 16.208 73.9205V100C16.2082 100 63.4975 70.1551 84.0432 21.7254Z" fill="#A5E887"/>
</svg>
