<svg id="Слой_1" data-name="Слой 1" xmlns="http://www.w3.org/2000/svg" width="100" height="76.17" viewBox="0 0 100 76.17">
  <title>Монтажная область 1</title>
  <path d="M17.77,58.59V76.17H82.23V58.59Z" style="fill: #ff9f00"/>
  <path d="M50,58.59H82.23V76.17H50Z" style="fill: #ff7816"/>
  <path d="M82.52,33.05,77.77,42.3H22.23l-4.75-9.25c7-9.67,19.1-15.47,32.52-15.47S75.55,23.38,82.52,33.05Z" style="fill: #ff4b00"/>
  <path d="M82.52,33.05,77.77,42.3H50V17.58C63.42,17.58,75.55,23.38,82.52,33.05Z" style="fill: #cc1e0d"/>
  <path d="M93.18,27.19l-11,37.26H17.77L6.82,27.19l7.38-2.81A20.69,20.69,0,0,0,29.14,35.16h3C38.93,34.1,44,23.79,46,14h8C56,23.79,61.07,34.1,67.81,35.16h3A20.69,20.69,0,0,0,85.8,24.38Z" style="fill: #fdbf00"/>
  <path d="M93.18,27.19l-11,37.26H50V14h4C56,23.79,61.07,34.1,67.81,35.16h3A20.69,20.69,0,0,0,85.8,24.38Z" style="fill: #ff9f00"/>
  <path d="M9,29.3a9,9,0,0,1-9-8.79,9,9,0,0,1,9-8.79A8.79,8.79,0,0,1,9,29.3Z" style="fill: #ff9f00"/>
  <path d="M91,29.3a8.79,8.79,0,1,1,0-17.58,9,9,0,0,1,9,8.79A9,9,0,0,1,91,29.3Z" style="fill: #ff7816"/>
  <path d="M50,0a8.79,8.79,0,1,0,8.79,8.79A8.78,8.78,0,0,0,50,0Z" style="fill: #ff9f00"/>
  <path d="M50,33.93,40,44,50,54,60,44Z" style="fill: #ff4b00"/>
  <path d="M67.58,45.66l4.14,4.14L67.58,54,63.44,49.8Z" style="fill: #cc1e0d"/>
  <path d="M32.42,45.66l4.14,4.14L32.42,54,28.28,49.8Z" style="fill: #ff4b00"/>
  <path d="M50,17.58V0a8.79,8.79,0,0,1,0,17.58Z" style="fill: #ff7816"/>
  <path d="M60,44,50,54v-20Z" style="fill: #cc1e0d"/>
</svg>
