<svg width="278" height="278" viewBox="0 0 278 278" fill="none" xmlns="http://www.w3.org/2000/svg">
<circle cx="139" cy="139" r="139" fill="#2D8984"/>
<g clip-path="url(#clip0)">
<path d="M93.0101 183.956L92.6312 173.795C92.5594 171.874 91.9468 170.013 90.8633 168.425L84.2965 158.801C81.306 154.419 81.2305 148.672 84.105 144.212L95.2275 126.968L102.818 152.108L99.8484 183.807L93.6457 184.503C93.3151 184.54 93.0225 184.288 93.0101 183.956Z" fill="#F1D0A5"/>
<path d="M183.99 183.956L184.369 173.795C184.441 171.874 185.053 170.013 186.137 168.425L192.704 158.801C195.694 154.419 195.77 148.672 192.895 144.212L181.86 127.07L174.182 152.108L177.151 183.807L183.354 184.503C183.685 184.54 183.978 184.288 183.99 183.956Z" fill="#F1D0A5"/>
<path d="M192.895 144.212L181.86 127.07L180.685 133.073L187.865 144.212C190.739 148.672 190.664 154.419 187.673 158.801L181.106 168.425C180.023 170.013 179.41 171.874 179.338 173.795L178.958 184.009L183.354 184.503C183.685 184.54 183.978 184.288 183.99 183.956L184.369 173.795C184.441 171.874 185.053 170.013 186.137 168.425L192.704 158.802C195.694 154.419 195.77 148.672 192.895 144.212Z" fill="#F1B986"/>
<path d="M177.145 154.405H99.8553C96.9872 154.405 94.6624 152.08 94.6624 149.212V97.6865C94.6624 94.8184 96.9872 92.4935 99.8553 92.4935H177.145C180.013 92.4935 182.338 94.8184 182.338 97.6865V149.212C182.338 152.08 180.013 154.405 177.145 154.405Z" fill="#365E7D"/>
<path d="M177.145 92.4935H173.619C176.487 92.4935 178.812 94.8186 178.812 97.6865V149.212C178.812 152.08 176.487 154.405 173.619 154.405H177.145C180.013 154.405 182.338 152.08 182.338 149.212V97.6865C182.338 94.8184 180.013 92.4935 177.145 92.4935Z" fill="#2B4D66"/>
<path d="M174.888 99.6615H104.06C103.904 99.6615 103.777 99.7955 103.777 99.9601V146.939C103.777 147.103 103.904 147.237 104.06 147.237H174.888C175.043 147.237 175.17 147.103 175.17 146.939V99.9601C175.17 99.7955 175.043 99.6615 174.888 99.6615Z" fill="#DD636E"/>
<path d="M174.888 99.6615H171.115C171.271 99.6615 171.398 99.7955 171.398 99.9601V146.939C171.398 147.103 171.271 147.237 171.115 147.237H174.888C175.044 147.237 175.17 147.103 175.17 146.939V99.9601C175.17 99.7955 175.044 99.6615 174.888 99.6615Z" fill="#DA4A54"/>
<path d="M99.2642 126.386C98.3223 126.386 97.5591 125.623 97.5591 124.681V122.218C97.5591 121.276 98.3225 120.513 99.2642 120.513C100.206 120.513 100.969 121.276 100.969 122.218V124.681C100.969 125.623 100.206 126.386 99.2642 126.386Z" fill="#2B4D66"/>
<path d="M103.777 138.196H175.17V141.606H103.777V138.196Z" fill="#F6F1F1"/>
<path d="M126.369 143.209C125.427 143.209 124.664 142.445 124.664 141.503V138.298C124.664 137.356 125.427 136.593 126.369 136.593C127.311 136.593 128.074 137.357 128.074 138.298V141.503C128.074 142.445 127.311 143.209 126.369 143.209Z" fill="#2B4D66"/>
<path d="M107.732 182.452L107.905 175.051C107.934 173.791 108.16 172.543 108.576 171.353C109.743 168.011 109.082 164.301 106.832 161.567C106.358 160.992 106.284 160.186 106.645 159.533L116.208 142.255C116.984 140.854 116.728 139.107 115.582 137.988C114.148 136.587 111.84 136.647 110.481 138.121L94.5728 155.372L95.6193 167.394L99.8482 183.807L107.222 183.008C107.507 182.977 107.726 182.74 107.732 182.452Z" fill="#F1D0A5"/>
<path d="M116.208 142.255C116.984 140.854 116.728 139.107 115.582 137.988C114.29 136.725 112.29 136.653 110.913 137.728C111.015 137.809 111.115 137.895 111.211 137.988C112.356 139.107 112.613 140.854 111.837 142.255L102.274 159.533C101.913 160.186 101.987 160.992 102.461 161.567C104.711 164.301 105.372 168.011 104.205 171.354C103.789 172.544 103.563 173.791 103.533 175.051L103.405 180.583C103.373 181.94 102.341 183.063 100.991 183.21L100.203 183.295C99.9534 183.322 99.7861 183.564 99.8486 183.807L107.222 183.008C107.508 182.977 107.726 182.74 107.733 182.453L107.9 175.266C107.931 173.939 108.134 172.616 108.573 171.363C109.745 168.018 109.085 164.304 106.832 161.568C106.359 160.992 106.285 160.186 106.645 159.534L116.208 142.255Z" fill="#F1B986"/>
<path d="M169.268 182.452L169.096 175.051C169.066 173.791 168.84 172.543 168.424 171.353C167.257 168.011 167.918 164.301 170.168 161.567C170.642 160.992 170.716 160.186 170.355 159.533L160.792 142.255C160.016 140.854 160.273 139.107 161.418 137.988C162.852 136.587 165.16 136.647 166.52 138.121L182.427 155.372L181.381 167.394L177.152 183.807L169.778 183.008C169.493 182.977 169.274 182.74 169.268 182.452Z" fill="#F1D0A5"/>
<path d="M146.555 120.004L136.117 113.978C135.149 113.419 133.939 114.118 133.939 115.235V127.289C133.939 128.406 135.149 129.105 136.117 128.546L146.555 122.52C147.524 121.961 147.524 120.563 146.555 120.004Z" fill="#F6F1F1"/>
</g>
<defs>
<clipPath id="clip0">
<rect width="113" height="113" fill="white" transform="translate(82 82)"/>
</clipPath>
</defs>
</svg>
