<svg width="278" height="158" viewBox="0 0 278 158" fill="none" xmlns="http://www.w3.org/2000/svg">
<path d="M0 10C0 4.47715 4.47715 0 10 0H268C273.523 0 278 4.47715 278 10V158H0V10Z" fill="#5F5BAB"/>
<path d="M164.688 35.625H136.375H108.25C106.697 35.625 105.438 36.8839 105.438 38.4375V120.375H136.375H146.015C148.657 123.648 155.198 126 158.875 126C163.458 126 167.5 122.252 167.5 117.562V38.4375C167.5 36.8839 166.241 35.625 164.688 35.625Z" fill="#F0F7FF"/>
<path d="M158.875 126C163.458 126 167.5 122.252 167.5 117.562V38.4375C167.5 36.8839 166.241 35.625 164.688 35.625H136.375V120.375H146.015C148.657 123.648 155.198 126 158.875 126Z" fill="#DFE7F4"/>
<path d="M184.375 49.875H181.562H178.75L173.125 52.6875V58.3125L178.75 61.125H181.562H184.375L190 58.3125V52.6875L184.375 49.875Z" fill="#613D5C"/>
<path d="M190 58.3125V52.6875L184.375 49.875H181.562V61.125H184.375L190 58.3125Z" fill="#4B2746"/>
<path d="M185.342 97.6875H181.562H177.519L173.125 100.5C173.125 100.781 173.181 101.119 173.294 101.4L178.919 118.462C179.256 119.587 180.325 120.375 181.562 120.375C182.8 120.375 183.869 119.588 184.206 118.462L189.831 101.4C189.944 101.119 190 100.781 190 100.5L185.342 97.6875Z" fill="#FFE1BA"/>
<path d="M184.206 118.462L189.831 101.4C189.944 101.119 190 100.781 190 100.5L185.342 97.6875H181.562V120.375C182.8 120.375 183.869 119.588 184.206 118.462Z" fill="#FFBFAB"/>
<path d="M125.125 63.9376C124.405 63.9376 123.686 63.6629 123.136 63.1135L117.511 57.4885C116.413 56.3899 116.413 54.61 117.511 53.5114C118.61 52.4129 120.39 52.4129 121.488 53.5114L125.125 57.148L128.761 53.5114C129.86 52.4129 131.64 52.4129 132.738 53.5114C133.837 54.61 133.837 56.3899 132.738 57.4885L127.113 63.1135C126.564 63.6629 125.844 63.9376 125.125 63.9376Z" fill="#9CDD05"/>
<path d="M125.125 80.8125C124.405 80.8125 123.686 80.5379 123.136 79.9885L117.511 74.3635C116.413 73.2649 116.413 71.485 117.511 70.3864C118.61 69.2879 120.39 69.2879 121.488 70.3864L125.125 74.023L128.761 70.3864C129.86 69.2879 131.64 69.2879 132.738 70.3864C133.837 71.485 133.837 73.2649 132.738 74.3635L127.113 79.9885C126.564 80.5379 125.844 80.8125 125.125 80.8125Z" fill="#9CDD05"/>
<path d="M125.125 97.6875C124.405 97.6875 123.686 97.4129 123.136 96.8635L117.511 91.2385C116.413 90.1399 116.413 88.36 117.511 87.2614C118.61 86.1629 120.39 86.1629 121.488 87.2614L125.125 90.898L128.761 87.2614C129.86 86.1629 131.64 86.1629 132.738 87.2614C133.837 88.36 133.837 90.1399 132.738 91.2385L127.113 96.8635C126.564 97.4129 125.844 97.6875 125.125 97.6875Z" fill="#9CDD05"/>
<path d="M181.562 58.3125H173.125V100.5H181.562H190V58.3125H181.562Z" fill="#FABE2C"/>
<path d="M181.562 58.3125H190V100.5H181.562V58.3125Z" fill="#FF9100"/>
<path d="M181.562 41.4375C176.894 41.4375 173.125 45.2061 173.125 49.875V52.6875H181.562H190V49.875C190 45.2061 186.231 41.4375 181.562 41.4375Z" fill="#FF641A"/>
<path d="M190 49.875C190 45.2061 186.231 41.4375 181.562 41.4375V52.6875H190V49.875Z" fill="#F03800"/>
<path d="M136.375 63.9375H153.25C154.805 63.9375 156.062 62.6796 156.062 61.125C156.062 59.5704 154.805 58.3125 153.25 58.3125H136.375C134.82 58.3125 133.562 59.5704 133.562 61.125C133.562 62.6796 134.82 63.9375 136.375 63.9375Z" fill="#613D5C"/>
<path d="M153.25 75.1875H136.375C134.82 75.1875 133.562 76.4454 133.562 78C133.562 79.5546 134.82 80.8125 136.375 80.8125H153.25C154.805 80.8125 156.062 79.5546 156.062 78C156.062 76.4454 154.805 75.1875 153.25 75.1875Z" fill="#613D5C"/>
<path d="M153.25 92.0625H136.375C134.82 92.0625 133.562 93.3204 133.562 94.875C133.562 96.4296 134.82 97.6875 136.375 97.6875H153.25C154.805 97.6875 156.062 96.4296 156.062 94.875C156.062 93.3204 154.805 92.0625 153.25 92.0625Z" fill="#613D5C"/>
<path d="M156.062 61.125C156.062 59.5704 154.805 58.3125 153.25 58.3125H136.375V63.9375H153.25C154.805 63.9375 156.062 62.6796 156.062 61.125Z" fill="#4B2746"/>
<path d="M156.062 78C156.062 76.4454 154.805 75.1875 153.25 75.1875H136.375V80.8125H153.25C154.805 80.8125 156.062 79.5546 156.062 78Z" fill="#4B2746"/>
<path d="M156.062 94.875C156.062 93.3204 154.805 92.0625 153.25 92.0625H136.375V97.6875H153.25C154.805 97.6875 156.062 96.4296 156.062 94.875Z" fill="#4B2746"/>
<path d="M147.625 30H136.375H125.125C123.57 30 122.312 31.2579 122.312 32.8125V38.4375C122.312 39.9921 123.57 41.25 125.125 41.25H136.375H147.625C149.18 41.25 150.438 39.9921 150.438 38.4375V32.8125C150.438 31.2579 149.18 30 147.625 30Z" fill="#FF641A"/>
<path d="M150.438 38.4375V32.8125C150.438 31.2579 149.18 30 147.625 30H136.375V41.25H147.625C149.18 41.25 150.438 39.9921 150.438 38.4375Z" fill="#F03800"/>
<path d="M150.438 117.562C150.438 116.009 149.178 114.75 147.625 114.75H136.375H96.8125C95.2592 114.75 94 116.009 94 117.562V120.375C94 123.481 96.5183 126 99.625 126H136.375H158.875C154.206 126 150.438 122.231 150.438 117.562Z" fill="#DFE7F4"/>
<path d="M150.438 117.562C150.438 116.009 149.178 114.75 147.625 114.75H136.375V126H158.875C154.206 126 150.438 122.231 150.438 117.562Z" fill="#C7CFE1"/>
</svg>
