<svg width="278" height="278" viewBox="0 0 278 278" fill="none" xmlns="http://www.w3.org/2000/svg">
<circle cx="139" cy="139" r="139" fill="#5F5BAB"/>
<g clip-path="url(#clip0)">
<path d="M190.207 188.31V112.448C190.207 109.306 187.659 106.759 184.517 106.759H93.4826C90.3403 106.759 87.793 109.306 87.793 112.448V188.31H190.207Z" fill="#CCCCCC"/>
<path d="M194 182.621V188.31C194 191.453 191.453 194 188.31 194H89.6897C86.5473 194 84 191.453 84 188.31V182.621H121.931L125.724 186.414H152.276L156.069 182.621H194Z" fill="#999999"/>
<path d="M95.3794 114.345H182.621V171.241H95.3794V114.345Z" fill="#29ABE2"/>
<path d="M137.104 176.931H140.897V180.724H137.104V176.931Z" fill="#F2F2F2"/>
<path d="M118.138 161.759H112.448C109.306 161.759 106.759 159.211 106.759 156.069V89.6897C106.759 86.5473 109.306 84 112.448 84H165.552C168.694 84 171.242 86.5473 171.242 89.6897V156.069C171.242 159.211 168.694 161.759 165.552 161.759H118.138Z" fill="#E6E6E6"/>
<path d="M114.345 142.793H163.655V146.586H114.345V142.793Z" fill="#999999"/>
<path d="M114.345 150.379H159.862V154.172H114.345V150.379Z" fill="#999999"/>
<path d="M125.724 135.207H163.655V139H125.724V135.207Z" fill="#999999"/>
<path d="M118.138 135.207H121.931V139H118.138V135.207Z" fill="#999999"/>
<path d="M130.276 125.345L122.689 119.655C121.851 119.027 121.682 117.838 122.31 117C122.418 116.856 122.546 116.729 122.689 116.621L130.276 110.931L132.551 113.966L126.989 118.138L132.551 122.31L130.276 125.345Z" fill="#DA4836"/>
<path d="M147.724 125.345L145.448 122.31L151.011 118.138L145.448 113.966L147.724 110.931L155.31 116.621C156.148 117.249 156.318 118.438 155.69 119.276C155.582 119.42 155.454 119.547 155.31 119.655L147.724 125.345Z" fill="#DA4836"/>
<path d="M133.446 126.915L141.034 107.951L144.557 109.361L136.97 128.325L133.446 126.915Z" fill="#DA4836"/>
<path d="M112.448 84H165.552C168.694 84 171.242 86.5473 171.242 89.6897V99.1724H106.759V89.6897C106.759 86.5473 109.306 84 112.448 84Z" fill="#0071BC"/>
<path d="M112.448 89.6897H116.241V93.4828H112.448V89.6897Z" fill="#DA4836"/>
<path d="M120.034 89.6897H123.827V93.4828H120.034V89.6897Z" fill="#F8CF26"/>
<path d="M127.621 89.6897H131.414V93.4828H127.621V89.6897Z" fill="#3DBF50"/>
</g>
<defs>
<clipPath id="clip0">
<rect width="110" height="110" fill="white" transform="translate(84 84)"/>
</clipPath>
</defs>
</svg>
