<svg width="278" height="158" viewBox="0 0 278 158" fill="none" xmlns="http://www.w3.org/2000/svg">
<path d="M0 10C0 4.47715 4.47715 0 10 0H268C273.523 0 278 4.47715 278 10V158H0V10Z" fill="#A3282A"/>
<path d="M94 89.8134V30H162.73V82.9102H107.807L94 89.8134Z" fill="#57D9AD"/>
<path d="M128.453 30H162.73V82.9102H128.453V30Z" fill="#26BFA6"/>
<path d="M184 120L170.193 114.551H125.816V77.6367H184V120Z" fill="#FFF5F5"/>
<path d="M154.82 114.551H170.193L184 120V77.6367H154.82V114.551Z" fill="#EFE2DD"/>
<path d="M136.363 88.1836H173.453V93.457H136.363V88.1836Z" fill="#5C6366"/>
<path d="M136.363 98.7305H173.453V104.004H136.363V98.7305Z" fill="#5C6366"/>
<path d="M131.09 61.8164H125.816V56.0924C125.816 53.8651 127.227 51.867 129.329 51.1202C130.384 50.7469 131.09 49.7477 131.09 48.6329C131.09 47.1782 129.905 45.9962 128.453 45.9962C127.001 45.9962 125.816 47.1782 125.816 48.6329H120.543C120.543 44.2711 124.091 40.7228 128.453 40.7228C132.815 40.7228 136.363 44.2711 136.363 48.6329C136.363 51.9803 134.242 54.9776 131.085 56.0926L131.09 61.8164Z" fill="#FFF5F5"/>
<path d="M125.816 67.0898H131.09V72.3633H125.816V67.0898Z" fill="#FFF5F5"/>
<path d="M154.82 98.7305H173.453V104.004H154.82V98.7305Z" fill="#41474D"/>
<path d="M154.82 88.1836H173.453V93.457H154.82V88.1836Z" fill="#41474D"/>
<path d="M128.453 67.0898H131.09V72.3633H128.453V67.0898Z" fill="#EFE2DD"/>
<path d="M131.09 48.6328C131.09 49.7478 130.384 50.7468 129.329 51.1201C129.008 51.234 128.739 51.4269 128.453 51.5953V61.8164H131.09L131.085 56.0924C134.242 54.9775 136.363 51.9802 136.363 48.6328C136.363 44.271 132.815 40.7227 128.453 40.7227V45.9961C129.905 45.9961 131.09 47.178 131.09 48.6328Z" fill="#EFE2DD"/>
</svg>
