<svg width="278" height="278" viewBox="0 0 278 278" fill="none" xmlns="http://www.w3.org/2000/svg">
<circle cx="139" cy="139" r="139" fill="#FEAE17"/>
<path d="M82 157.099V82H168.295V148.432H99.3351L82 157.099Z" fill="#57D9AD"/>
<path d="M125.258 82H168.295V148.432H125.258V82Z" fill="#26BFA6"/>
<path d="M195 195L177.665 188.158H121.947V141.811H195V195Z" fill="#FFF5F5"/>
<path d="M158.363 188.158H177.665L195 195V141.811H158.363V188.158Z" fill="#EFE2DD"/>
<path d="M135.189 155.053H181.758V161.674H135.189V155.053Z" fill="#5C6366"/>
<path d="M135.189 168.295H181.758V174.916H135.189V168.295Z" fill="#5C6366"/>
<path d="M128.568 121.947H121.947V114.761C121.947 111.964 123.719 109.455 126.357 108.518C127.682 108.049 128.568 106.794 128.568 105.395C128.568 103.568 127.081 102.084 125.258 102.084C123.434 102.084 121.947 103.568 121.947 105.395H115.326C115.326 99.9182 119.781 95.4631 125.258 95.4631C130.734 95.4631 135.189 99.9182 135.189 105.395C135.189 109.598 132.526 113.361 128.562 114.761L128.568 121.947Z" fill="#FFF5F5"/>
<path d="M121.947 128.568H128.568V135.189H121.947V128.568Z" fill="#FFF5F5"/>
<path d="M158.363 168.295H181.758V174.916H158.363V168.295Z" fill="#41474D"/>
<path d="M158.363 155.053H181.758V161.674H158.363V155.053Z" fill="#41474D"/>
<path d="M125.258 128.568H128.568V135.189H125.258V128.568Z" fill="#EFE2DD"/>
<path d="M128.568 105.395C128.568 106.794 127.682 108.049 126.357 108.517C125.954 108.66 125.617 108.903 125.258 109.114V121.947H128.568L128.562 114.761C132.526 113.361 135.189 109.597 135.189 105.395C135.189 99.918 130.734 95.4629 125.258 95.4629V102.084C127.081 102.084 128.568 103.568 128.568 105.395Z" fill="#EFE2DD"/>
</svg>
