<svg width="278" height="158" viewBox="0 0 278 158" fill="none" xmlns="http://www.w3.org/2000/svg">
<path d="M0 10C0 4.47715 4.47715 0 10 0H268C273.523 0 278 4.47715 278 10V158H0V10Z" fill="#2D8984"/>
<g clip-path="url(#clip0)">
<path d="M93.0099 123.956L92.6309 113.795C92.5592 111.874 91.9465 110.013 90.8631 108.425L84.2963 98.8014C81.3058 94.4189 81.2303 88.6718 84.1047 84.2123L95.2273 66.9677L102.818 92.1082L99.8481 123.807L93.6455 124.503C93.3149 124.54 93.0222 124.288 93.0099 123.956Z" fill="#F1D0A5"/>
<path d="M183.99 123.956L184.369 113.795C184.44 111.874 185.053 110.013 186.136 108.425L192.703 98.8014C195.694 94.4189 195.769 88.6718 192.895 84.2122L181.86 67.0704L174.182 92.1081L177.151 123.807L183.354 124.503C183.685 124.54 183.977 124.288 183.99 123.956Z" fill="#F1D0A5"/>
<path d="M192.895 84.2122L181.86 67.0704L180.685 73.0727L187.865 84.2122C190.739 88.6718 190.664 94.4189 187.673 98.8014L181.106 108.425C180.023 110.013 179.41 111.874 179.338 113.795L178.958 124.009L183.354 124.503C183.685 124.54 183.978 124.288 183.99 123.956L184.369 113.795C184.441 111.874 185.053 110.013 186.137 108.425L192.704 98.8016C195.694 94.4189 195.77 88.6715 192.895 84.2122Z" fill="#F1B986"/>
<path d="M177.145 94.4052H99.855C96.987 94.4052 94.6621 92.0803 94.6621 89.2123V37.6865C94.6621 34.8184 96.987 32.4935 99.855 32.4935H177.145C180.013 32.4935 182.338 34.8184 182.338 37.6865V89.212C182.338 92.0801 180.013 94.4052 177.145 94.4052Z" fill="#365E7D"/>
<path d="M177.145 32.4935H173.619C176.487 32.4935 178.812 34.8186 178.812 37.6865V89.212C178.812 92.0801 176.487 94.405 173.619 94.405H177.145C180.013 94.405 182.338 92.0801 182.338 89.212V37.6865C182.338 34.8184 180.013 32.4935 177.145 32.4935Z" fill="#2B4D66"/>
<path d="M174.887 39.6615H104.059C103.904 39.6615 103.777 39.7955 103.777 39.9601V86.9385C103.777 87.1032 103.904 87.2371 104.059 87.2371H174.887C175.043 87.2371 175.17 87.1032 175.17 86.9385V39.9601C175.17 39.7955 175.043 39.6615 174.887 39.6615Z" fill="#DD636E"/>
<path d="M174.887 39.6615H171.115C171.271 39.6615 171.397 39.7955 171.397 39.9601V86.9385C171.397 87.1032 171.271 87.2371 171.115 87.2371H174.887C175.043 87.2371 175.17 87.1032 175.17 86.9385V39.9601C175.17 39.7955 175.043 39.6615 174.887 39.6615Z" fill="#DA4A54"/>
<path d="M99.2637 66.3861C98.3218 66.3861 97.5586 65.6227 97.5586 64.6809V62.2181C97.5586 61.2761 98.322 60.5129 99.2637 60.5129C100.206 60.5129 100.969 61.2764 100.969 62.2181V64.6809C100.969 65.6227 100.206 66.3861 99.2637 66.3861Z" fill="#2B4D66"/>
<path d="M103.777 78.1957H175.17V81.6062H103.777V78.1957Z" fill="#F6F1F1"/>
<path d="M126.369 83.2085C125.427 83.2085 124.664 82.4451 124.664 81.5033V78.2983C124.664 77.3563 125.427 76.5931 126.369 76.5931C127.31 76.5931 128.074 77.3566 128.074 78.2983V81.5033C128.074 82.4451 127.31 83.2085 126.369 83.2085Z" fill="#2B4D66"/>
<path d="M107.732 122.452L107.905 115.051C107.934 113.791 108.16 112.543 108.576 111.353C109.743 108.011 109.082 104.301 106.832 101.567C106.358 100.992 106.284 100.186 106.645 99.5335L116.208 82.2551C116.984 80.8538 116.728 79.1072 115.582 77.9878C114.148 76.5865 111.84 76.6465 110.481 78.1206L94.5728 95.3717L95.6193 107.394L99.8482 123.807L107.222 123.008C107.507 122.977 107.726 122.74 107.732 122.452Z" fill="#F1D0A5"/>
<path d="M116.208 82.255C116.984 80.8537 116.728 79.1071 115.582 77.9877C114.29 76.725 112.29 76.6529 110.913 77.7283C111.015 77.8087 111.115 77.8945 111.211 77.9877C112.356 79.1069 112.613 80.8537 111.837 82.255L102.274 99.5334C101.913 100.186 101.987 100.992 102.461 101.567C104.711 104.301 105.372 108.011 104.205 111.354C103.789 112.544 103.563 113.791 103.533 115.051L103.405 120.583C103.373 121.94 102.341 123.063 100.991 123.21L100.203 123.295C99.9534 123.322 99.7861 123.564 99.8486 123.807L107.222 123.008C107.508 122.977 107.726 122.74 107.733 122.453L107.9 115.266C107.931 113.939 108.134 112.616 108.573 111.363C109.745 108.018 109.085 104.304 106.832 101.568C106.359 100.992 106.285 100.186 106.645 99.5336L116.208 82.255Z" fill="#F1B986"/>
<path d="M169.267 122.452L169.095 115.051C169.066 113.791 168.839 112.543 168.424 111.353C167.256 108.011 167.917 104.301 170.168 101.567C170.641 100.992 170.716 100.186 170.354 99.5335L160.791 82.2551C160.016 80.8538 160.272 79.1072 161.418 77.9878C162.852 76.5865 165.16 76.6465 166.519 78.1206L182.427 95.3717L181.38 107.394L177.151 123.807L169.778 123.008C169.492 122.977 169.274 122.74 169.267 122.452Z" fill="#F1D0A5"/>
<path d="M146.555 60.0044L136.117 53.9779C135.149 53.4191 133.939 54.1176 133.939 55.2355V67.2885C133.939 68.4064 135.149 69.1051 136.117 68.5461L146.555 62.5196C147.523 61.9605 147.523 60.5633 146.555 60.0044Z" fill="#F6F1F1"/>
</g>
<defs>
<clipPath id="clip0">
<rect width="113" height="113" fill="white" transform="translate(82 22)"/>
</clipPath>
</defs>
</svg>
