<svg width="278" height="158" viewBox="0 0 278 158" fill="none" xmlns="http://www.w3.org/2000/svg">
<path d="M0 10C0 4.47715 4.47715 0 10 0H268C273.523 0 278 4.47715 278 10V158H0V10Z" fill="#FEAE17"/>
<path d="M183 103.004H142.077L144.425 98.9895C147.48 93.787 143.711 87.0081 137.5 87.0081C131.288 87.0081 127.522 93.7902 130.575 98.9895L132.923 103.004H92V39.0198H183V103.004Z" fill="#00ACD9"/>
<path d="M144.425 98.9895L142.077 103.004H183V39.0198H137.5V87.0081C143.711 87.0081 147.48 93.787 144.425 98.9895Z" fill="#008EB3"/>
<path d="M166.826 92.3401H145.196L144.425 91.0201C142.957 88.5076 140.369 87.0081 137.5 87.0081C134.631 87.0081 132.043 88.5078 130.575 91.0201L129.804 92.3401H108.174V89.6741C108.174 88.2031 106.976 87.0081 105.508 87.0081H102.842V55.0159H105.508C106.976 55.0159 108.174 53.8208 108.174 52.3499V49.6838H166.826V52.3499C166.826 53.8208 168.024 55.0159 169.492 55.0159H172.158V87.0081H169.492C168.024 87.0081 166.826 88.2031 166.826 89.6741V92.3401Z" fill="#FFF5F5"/>
<path d="M144.425 91.0201L145.196 92.3401H166.826V89.6741C166.826 88.2031 168.024 87.0081 169.492 87.0081H172.158V55.0159H169.492C168.024 55.0159 166.826 53.8208 166.826 52.3499V49.6838H137.5V87.0081C140.369 87.0081 142.957 88.5076 144.425 91.0201Z" fill="#EFE2DD"/>
<path d="M129.502 60.3479H145.498V65.6799H129.502V60.3479Z" fill="#EFE2DD"/>
<path d="M113.506 71.012H161.494V76.344H113.506V71.012Z" fill="#EFE2DD"/>
<path d="M129.502 103.004V125.98L137.5 121.981L145.498 125.98V103.004H129.502Z" fill="#F03800"/>
<path d="M137.5 71.012H161.494V76.344H137.5V71.012Z" fill="#E1D3CE"/>
<path d="M137.5 60.3479H145.498V65.6799H137.5V60.3479Z" fill="#E1D3CE"/>
<path d="M145.498 103.004H137.5V121.981L145.498 125.98V103.004Z" fill="#CD0000"/>
<path d="M137.5 108.336C144.862 108.336 150.83 102.368 150.83 95.0061C150.83 87.6441 144.862 81.676 137.5 81.676C130.138 81.676 124.17 87.6441 124.17 95.0061C124.17 102.368 130.138 108.336 137.5 108.336Z" fill="#FF641A"/>
<path d="M150.83 95.0061C150.83 87.644 144.862 81.676 137.5 81.676V108.336C144.862 108.336 150.83 102.368 150.83 95.0061Z" fill="#F03800"/>
<path d="M134.834 92.3401H140.166V97.6721H134.834V92.3401Z" fill="#F03800"/>
<path d="M137.5 92.3401H140.166V97.6721H137.5V92.3401Z" fill="#CD0000"/>
</svg>
