<svg width="278" height="278" viewBox="0 0 278 278" fill="none" xmlns="http://www.w3.org/2000/svg">
<circle cx="139" cy="139" r="139" fill="#A3282A"/>
<path d="M195 163.961H144.184L147.1 158.976C150.893 152.516 146.212 144.098 138.5 144.098C130.786 144.098 126.109 152.52 129.9 158.976L132.816 163.961H82V84.5081H195V163.961Z" fill="#FED843"/>
<path d="M147.1 158.976L144.184 163.961H195V84.5081H138.5V144.098C146.212 144.098 150.893 152.516 147.1 158.976Z" fill="#FABE2C"/>
<path d="M174.916 150.719H148.057L147.1 149.08C145.276 145.96 142.063 144.098 138.5 144.098C134.937 144.098 131.724 145.96 129.9 149.08L128.943 150.719H102.084V147.408C102.084 145.582 100.597 144.098 98.7734 144.098H95.4629V104.371H98.7734C100.597 104.371 102.084 102.887 102.084 101.061V97.7502H174.916V101.061C174.916 102.887 176.403 104.371 178.227 104.371H181.537V144.098H178.227C176.403 144.098 174.916 145.582 174.916 147.408V150.719Z" fill="#FFF5F5"/>
<path d="M147.1 149.08L148.057 150.719H174.916V147.408C174.916 145.582 176.403 144.098 178.227 144.098H181.537V104.371H178.227C176.403 104.371 174.916 102.887 174.916 101.061V97.7502H138.5V144.098C142.063 144.098 145.276 145.96 147.1 149.08Z" fill="#EFE2DD"/>
<path d="M128.568 110.992H148.432V117.614H128.568V110.992Z" fill="#EFE2DD"/>
<path d="M108.705 124.235H168.295V130.856H108.705V124.235Z" fill="#EFE2DD"/>
<path d="M128.568 163.961V192.492L138.5 187.526L148.432 192.492V163.961H128.568Z" fill="#F03800"/>
<path d="M138.5 124.235H168.295V130.856H138.5V124.235Z" fill="#E1D3CE"/>
<path d="M138.5 110.992H148.432V117.614H138.5V110.992Z" fill="#E1D3CE"/>
<path d="M148.432 163.961H138.5V187.526L148.432 192.492V163.961Z" fill="#CD0000"/>
<path d="M138.5 170.582C147.642 170.582 155.053 163.171 155.053 154.03C155.053 144.888 147.642 137.477 138.5 137.477C129.358 137.477 121.947 144.888 121.947 154.03C121.947 163.171 129.358 170.582 138.5 170.582Z" fill="#FF641A"/>
<path d="M155.053 154.03C155.053 144.888 147.642 137.477 138.5 137.477V170.582C147.642 170.582 155.053 163.171 155.053 154.03Z" fill="#F03800"/>
<path d="M135.189 150.719H141.811V157.34H135.189V150.719Z" fill="#F03800"/>
<path d="M138.5 150.719H141.811V157.34H138.5V150.719Z" fill="#CD0000"/>
</svg>
