<svg width="32" height="32" viewBox="0 0 32 32" fill="none" xmlns="http://www.w3.org/2000/svg">
<path d="M28 0H4C1.79086 0 0 1.79086 0 4V28C0 30.2091 1.79086 32 4 32H28C30.2091 32 32 30.2091 32 28V4C32 1.79086 30.2091 0 28 0Z" fill="#DC472E"/>
<path d="M18.4853 20.4846C18.4846 20.3652 18.4495 20.241 18.4052 20.1293C18.3463 19.9826 18.2199 19.9095 18.0612 19.8941C17.8751 19.8758 17.7263 19.951 17.5914 20.0703C17.5374 20.1174 17.5128 20.1876 17.5128 20.1876L17.5156 23.9772V24.0706C17.5156 24.0706 17.5479 24.1141 17.5528 24.1197C17.6624 24.2384 17.7901 24.3325 17.9538 24.3662C18.2234 24.4217 18.4137 24.3093 18.4663 24.0593C18.4797 23.9969 18.4874 23.9323 18.4874 23.8684C18.4888 22.74 18.4909 21.6123 18.4853 20.4846ZM18.4853 20.4846C18.4846 20.3652 18.4495 20.241 18.4052 20.1293C18.3463 19.9826 18.2199 19.9095 18.0612 19.8941C17.8751 19.8758 17.7263 19.951 17.5914 20.0703C17.5374 20.1174 17.5128 20.1876 17.5128 20.1876L17.5156 23.9772V24.0706C17.5156 24.0706 17.5479 24.1141 17.5528 24.1197C17.6624 24.2384 17.7901 24.3325 17.9538 24.3662C18.2234 24.4217 18.4137 24.3093 18.4663 24.0593C18.4797 23.9969 18.4874 23.9323 18.4874 23.8684C18.4888 22.74 18.4909 21.6123 18.4853 20.4846ZM22.7285 14.7697C18.2437 14.6735 13.7569 14.6735 9.27144 14.7697C7.71543 14.8027 6.47119 16.075 6.47119 17.6317V24.6365C6.47119 26.1939 7.71543 27.4663 9.27144 27.4993C13.7569 27.5955 18.2437 27.5955 22.7285 27.4993C24.2852 27.4663 25.5294 26.1939 25.5294 24.6365V17.6317C25.5294 16.0751 24.2852 14.8027 22.7285 14.7697ZM10.5887 25.2749H9.29531V17.9632H7.95628V16.74H11.9306V17.9604H10.5887V25.2749ZM15.2174 22.24V25.2755H14.0722V24.5818C14.0307 24.626 14.0076 24.6499 13.9858 24.6744C13.7393 24.9525 13.4599 25.1842 13.1032 25.3071C12.929 25.3668 12.75 25.3871 12.5667 25.3555C12.3167 25.3141 12.1489 25.1702 12.0478 24.9427C11.9537 24.7327 11.9299 24.508 11.9291 24.2819C11.9263 23.4464 11.9277 19.0241 11.9277 18.9813H13.0702C13.0723 19.0199 13.0765 22.1944 13.0772 23.7427C13.0772 23.8269 13.0779 23.9133 13.0947 23.9955C13.1369 24.2033 13.2963 24.2925 13.4964 24.2194C13.7267 24.1352 13.9022 23.9765 14.0497 23.7862C14.0715 23.7588 14.0715 23.7097 14.0715 23.6703V18.9742L15.2174 18.9714C15.2174 18.9715 15.2174 21.1882 15.2174 22.24ZM19.5744 24.6688C19.4213 25.1295 19.0842 25.364 18.5997 25.3591C18.2058 25.3555 17.8863 25.199 17.623 24.9132C17.5935 24.8816 17.5121 24.7952 17.5121 24.7952V25.2741H16.3647V16.7392H17.5121C17.5121 17.6478 17.5121 19.5486 17.5121 19.5486C17.5121 19.5486 17.5767 19.4194 17.6357 19.3527C17.8133 19.154 18.0296 19.0002 18.2964 18.9328C18.7367 18.8226 19.2443 18.9588 19.4859 19.4735C19.6284 19.7775 19.6684 20.1019 19.6684 20.4319C19.6706 21.6249 19.6706 22.8179 19.6691 24.0109C19.6684 24.2342 19.6453 24.4547 19.5744 24.6688ZM23.8119 24.4288C23.6132 25.0109 23.2025 25.3339 22.6 25.4223C22.2264 25.4771 21.8564 25.4694 21.506 25.3107C21.0264 25.0944 20.7547 24.7033 20.6381 24.2055C20.5841 23.9738 20.5574 23.7308 20.5546 23.4928C20.5455 22.5582 20.5497 21.6229 20.5518 20.6883C20.5525 20.1996 20.669 19.7488 21.004 19.3745C21.386 18.9469 21.8747 18.7875 22.4329 18.8233C22.6007 18.8339 22.772 18.8613 22.9314 18.9139C23.4742 19.0923 23.7642 19.4988 23.8779 20.0381C23.9215 20.2459 23.9376 20.4615 23.9411 20.6743C23.9503 21.1728 23.9376 22.2717 23.9376 22.2717H21.7405V23.8467C21.7405 24.1296 21.9695 24.3585 22.2524 24.3585C22.5347 24.3585 22.7636 24.1296 22.7636 23.8467V23.0371H23.944C23.944 23.037 23.9615 23.9927 23.8119 24.4288ZM22.7636 20.4109C22.7636 20.1287 22.5347 19.8991 22.2524 19.8991C21.9695 19.8991 21.7405 20.1287 21.7405 20.4109V21.295H22.7636V20.4109ZM18.4052 20.1294C18.3463 19.9826 18.2199 19.9096 18.0612 19.8942C17.8751 19.8759 17.7263 19.951 17.5914 20.0704C17.5374 20.1174 17.5128 20.1877 17.5128 20.1877L17.5156 23.9773V24.0707C17.5156 24.0707 17.5479 24.1142 17.5528 24.1198C17.6624 24.2385 17.7901 24.3326 17.9538 24.3663C18.2234 24.4217 18.4137 24.3094 18.4663 24.0594C18.4797 23.9969 18.4874 23.9323 18.4874 23.8684C18.4888 22.74 18.4909 21.6124 18.4853 20.4847C18.4846 20.3652 18.4495 20.241 18.4052 20.1294Z" fill="white"/>
<path d="M21.3382 6.66968L21.3379 13.0063H20.1637L20.1651 12.3256C20.0353 12.4534 19.9245 12.5729 19.8027 12.6802C19.5869 12.8703 19.3424 13.0121 19.0564 13.0681C18.6173 13.1539 18.2433 13.0151 18.1033 12.5604C18.0567 12.4089 18.0285 12.2457 18.0273 12.0875V6.66968H19.1927V11.5021C19.1927 11.5661 19.1978 11.6309 19.209 11.6936C19.2444 11.8928 19.3916 11.9865 19.5833 11.92C19.8171 11.8391 19.9955 11.6773 20.1468 11.4866C20.1683 11.4593 20.1644 11.4085 20.1644 11.3685V6.66968H21.3382Z" fill="white"/>
<path d="M11.6265 7.77093C11.3716 6.69654 10.8376 4.42847 10.8376 4.42847H9.50146C9.50146 4.42847 10.528 7.83307 10.9871 9.35144C11.0036 9.40635 11.0112 9.46596 11.0112 9.52347L11.0107 13.0051H12.2428L12.2423 9.52347C12.2423 9.46596 12.2499 9.40635 12.2664 9.35144C12.7255 7.83307 13.752 4.42847 13.752 4.42847H12.4159C12.4159 4.42847 11.8818 6.69654 11.627 7.77093H11.6265Z" fill="white"/>
<path d="M15.36 6.51123C14.4314 6.51123 13.6787 7.26396 13.6787 8.1925V11.4828C13.6787 12.4113 14.4314 13.1641 15.36 13.1641C16.2885 13.1641 17.0413 12.4113 17.0413 11.4828V8.1925C17.0413 7.26396 16.2885 6.51123 15.36 6.51123ZM15.8452 11.5492C15.8452 11.8167 15.6275 12.0344 15.3601 12.0344C15.0926 12.0344 14.8749 11.8167 14.8749 11.5492V8.12601C14.8749 7.85848 15.0926 7.64088 15.3601 7.64088C15.6275 7.64088 15.8452 7.85855 15.8452 8.12601V11.5492Z" fill="white"/>
</svg>
