<svg width="32" height="32" viewBox="0 0 32 32" fill="none" xmlns="http://www.w3.org/2000/svg">
<path d="M28 0H4C1.79086 0 0 1.79086 0 4V28C0 30.2091 1.79086 32 4 32H28C30.2091 32 32 30.2091 32 28V4C32 1.79086 30.2091 0 28 0Z" fill="#44678D"/>
<path d="M9.82517 11.2387C10.4394 12.6788 11.2177 14.0366 12.2429 15.2555C12.3789 15.4177 12.5503 15.5619 12.7309 15.6793C12.9946 15.8513 13.2434 15.7908 13.3507 15.5044C13.4641 15.2038 13.5682 14.5946 13.5744 14.2789C13.5913 13.4541 13.5718 12.9136 13.5252 12.0898C13.4949 11.5621 13.2974 11.0989 12.48 10.959C12.2275 10.9157 12.2041 10.7184 12.3663 10.5216C12.7039 10.1118 13.1742 10.0465 13.6843 10.0207C14.5109 9.9783 15.3406 10.0129 16.1682 10.0207C16.5053 10.0236 16.8445 10.0494 17.1765 10.1181C17.6095 10.2078 17.8414 10.4962 17.9128 10.8976C17.9497 11.1047 17.9688 11.3176 17.9636 11.5271C17.942 12.4274 17.8964 13.3272 17.8856 14.227C17.881 14.5802 17.9081 14.9422 17.9877 15.2862C18.099 15.7655 18.4428 15.8859 18.7943 15.5395C19.2407 15.0996 19.6343 14.6046 20.0037 14.1019C20.6748 13.1874 21.1761 12.1838 21.6076 11.1491C21.8308 10.6152 22.0017 10.4992 22.6066 10.4978C23.7437 10.4953 24.8807 10.4943 26.0178 10.4978C26.2194 10.4987 26.4303 10.5168 26.6206 10.5743C26.9295 10.6678 27.0522 10.907 26.9798 11.2106C26.811 11.9219 26.4062 12.5264 25.9726 13.1076C25.2768 14.0401 24.5477 14.9502 23.8356 15.8719C23.7447 15.9893 23.6647 16.1145 23.5903 16.2416C23.3239 16.6986 23.3424 16.9549 23.7308 17.3353C24.3491 17.9409 25.0111 18.5075 25.6098 19.1296C26.045 19.5822 26.4477 20.0733 26.7925 20.5902C27.2287 21.2439 26.9593 21.8597 26.1445 21.9693C25.6319 22.0381 23.1281 21.9699 22.9987 21.9693C22.3255 21.9665 21.7355 21.7448 21.2603 21.3107C20.7318 20.8274 20.2515 20.2973 19.7441 19.7931C19.5912 19.6411 19.428 19.4954 19.252 19.3683C18.8369 19.0677 18.4295 19.1344 18.2355 19.5973C18.0698 19.9948 17.9266 21.0388 17.9199 21.128C17.8851 21.5942 17.5726 21.8914 17.0225 21.9201C15.4345 22.002 13.8956 21.8339 12.4621 21.1046C11.247 20.4868 10.2768 19.6133 9.43632 18.5947C8.10122 16.9766 7.04667 15.1981 6.08389 13.3673C6.03469 13.2737 5.05954 11.3035 5.03334 11.2104C4.94623 10.8988 5.02749 10.6012 5.30477 10.4987C5.47764 10.4349 8.69274 10.4985 8.74622 10.5012C9.25924 10.5276 9.60907 10.7331 9.82517 11.2387Z" fill="white"/>
</svg>
